<?xml version="1.0" standalone="no"?>
<!DOCTYPE svg PUBLIC "-//W3C//DTD SVG 20010904//EN"
 "http://www.w3.org/TR/2001/REC-SVG-20010904/DTD/svg10.dtd">
<svg version="1.0" xmlns="http://www.w3.org/2000/svg"
 width="260.000000pt" height="260.000000pt" viewBox="0 0 260.000000 260.000000"
 preserveAspectRatio="xMidYMid meet">
<metadata>
Created by potrace 1.11, written by Peter Selinger 2001-2013
</metadata>
<g transform="translate(0.000000,260.000000) scale(0.100000,-0.100000)"
fill="#000000" stroke="none">
<path d="M0 1300 l0 -1300 1300 0 1300 0 0 1300 0 1300 -1300 0 -1300 0 0
-1300z m1050 418 c1 -18 40 -136 88 -263 72 -190 92 -232 113 -244 17 -9 33
-11 45 -6 10 5 23 9 27 9 13 2 27 29 26 51 -1 17 -2 17 -6 2 -2 -9 -9 -14 -15
-10 -7 4 -9 0 -5 -10 4 -10 2 -16 -6 -14 -7 1 -15 11 -19 22 -6 19 -6 18 -7
-2 -2 -52 -45 -8 -66 67 -1 3 -10 23 -20 45 -30 69 -75 195 -69 195 4 0 1 7
-6 15 -10 11 -9 18 3 30 8 8 18 20 21 27 5 10 7 10 12 1 8 -19 24 -16 17 3 -4
12 0 14 20 9 14 -4 34 -2 45 4 24 13 55 4 46 -13 -3 -6 0 -4 8 4 7 9 21 14 31
12 13 -3 17 3 17 25 0 33 -16 53 -42 53 -10 0 -18 5 -18 11 0 12 29 5 73 -18
l27 -14 0 -239 c0 -233 1 -240 21 -251 39 -21 174 -6 167 18 -1 5 4 19 11 32
18 32 8 113 -19 151 -27 39 -77 63 -99 49 -15 -10 -15 -10 0 -5 13 3 16 -2 15
-20 0 -13 -4 -24 -8 -24 -5 0 -8 -10 -8 -22 0 -13 -11 -36 -25 -52 l-25 -29 0
76 c0 41 -3 82 -6 91 -5 13 3 16 49 16 40 0 58 5 68 18 13 16 13 16 -6 2 -17
-13 -17 -11 3 14 56 73 -6 204 -88 183 -11 -3 -22 -2 -25 3 -8 12 43 18 83 9
44 -9 82 -49 83 -87 3 -96 1 -106 -24 -128 l-25 -21 28 -17 c43 -25 73 -81 73
-135 0 -79 -7 -101 -44 -125 -30 -19 -52 -21 -215 -26 -129 -4 -185 -2 -192 6
-6 7 -8 14 -5 18 9 8 -18 37 -28 30 -5 -3 -9 2 -9 11 0 8 -8 18 -17 22 -10 3
-33 22 -51 42 -25 27 -32 43 -29 64 3 21 0 27 -12 26 -36 -3 -81 1 -81 9 0 4
39 6 87 4 65 -3 85 0 77 8 -6 6 -32 12 -58 13 -25 1 -46 5 -46 10 0 4 5 5 10
2 6 -3 13 1 16 10 5 13 9 13 23 3 13 -10 14 -10 4 2 -18 19 -16 30 5 30 13 0
14 2 4 9 -7 4 -12 12 -11 17 5 26 -3 44 -18 44 -13 0 -14 3 -5 8 10 7 10 16
-1 47 l-14 39 -48 -140 c-27 -76 -61 -175 -76 -218 -31 -87 -28 -102 19 -108
15 -2 -10 -5 -55 -5 -47 -1 -83 2 -83 8 0 5 8 9 17 9 9 0 24 7 33 15 9 9 59
130 110 270 52 140 98 255 102 255 4 0 8 -15 8 -32z m383 -138 c-3 -12 0 -20
7 -20 9 0 9 -4 -1 -17 -13 -15 -12 -15 8 -5 29 16 38 15 24 -2 -9 -11 -9 -15
1 -19 7 -3 0 -4 -17 -3 -25 1 -31 6 -33 30 -3 27 3 56 12 56 2 0 2 -9 -1 -20z
m-391 -82 c-7 -7 -12 -8 -12 -2 0 14 12 26 19 19 2 -3 -1 -11 -7 -17z m485
-54 c-3 -3 -12 -4 -19 -1 -8 3 -5 6 6 6 11 1 17 -2 13 -5z"/>
<path d="M1450 1430 c0 -5 5 -10 10 -10 6 0 10 5 10 10 0 6 -4 10 -10 10 -5 0
-10 -4 -10 -10z"/>
<path d="M1150 1270 c0 -5 5 -10 11 -10 5 0 7 5 4 10 -3 6 -8 10 -11 10 -2 0
-4 -4 -4 -10z"/>
</g>
</svg>
